<svg width="65" height="48" viewBox="0 0 65 48" fill="none" xmlns="http://www.w3.org/2000/svg">
<path fill-rule="evenodd" clip-rule="evenodd" d="M23.9909 27.7402C19.9422 28.8293 16.692 29.5675 12.3052 30.3944C10.824 30.6736 9.59571 30.9241 9.57574 30.9509C9.55566 30.9778 9.41608 31.6531 9.26535 32.4514C9.11463 33.2498 8.82433 34.313 8.62009 34.8137L8.2488 35.7244L6.75382 35.8913C5.05691 36.0806 4.67756 36.2807 4.34004 37.1644C3.97437 38.1216 4.10568 39.0121 4.72777 39.7932C4.94657 40.068 5.16725 40.1682 5.64855 40.2111C5.99667 40.2422 10.6012 39.827 15.881 39.2886L25.4805 38.3097L25.7011 38.7145C26.8406 40.8056 28.3477 42.0599 30.388 42.6153C31.1643 42.8266 33.5909 42.8258 34.3691 42.6142C36.405 42.0602 37.9135 40.8041 39.0522 38.7145L39.2729 38.3097L48.8724 39.2886C54.1521 39.827 58.7566 40.2422 59.1048 40.2111C59.5845 40.1684 59.8083 40.0672 60.0293 39.7932C60.8406 38.7876 60.7819 37.2189 59.9026 36.4093C59.5975 36.1282 59.2995 36.0424 58.2292 35.9267C57.5131 35.8493 56.8748 35.7625 56.8108 35.7339C56.572 35.6271 55.9676 33.8233 55.7057 32.4358C55.5566 31.646 55.4193 30.9793 55.4006 30.9541C55.3818 30.9289 53.9798 30.6432 52.2849 30.3194C48.9704 29.6861 45.9218 29.0058 42.583 28.1544C40.6133 27.6521 40.3866 27.6239 38.8315 27.6885C37.5736 27.7408 36.9785 27.8348 36.3518 28.0802C35.203 28.5302 33.9567 29.4388 33.1613 30.4061L32.487 31.2263L31.7974 30.3852C31.0473 29.4702 29.5798 28.4247 28.4596 28.0071C27.8027 27.7623 24.6165 27.572 23.9909 27.7402ZM27.3553 30.2415C28.0023 30.3931 28.628 30.6619 29.1888 31.0127C30.0611 31.5582 31.0846 32.536 31.4429 33.6278C31.5757 34.0325 33.364 34.1552 33.5949 33.6278C33.9285 32.633 34.6615 31.7458 35.7252 31.0656C36.9825 30.2615 37.6074 30.0905 39.2177 30.1098C40.344 30.1233 41.0218 30.2372 42.914 30.731C45.8455 31.4959 47.9066 31.9579 50.9688 32.5364C52.3039 32.7885 53.5147 33.0447 53.6594 33.1058C53.8647 33.1923 53.9884 33.4678 54.2226 34.3594C54.4813 35.3445 54.4981 35.502 54.3442 35.502C54.2461 35.502 50.5225 35.1358 46.0696 34.6884C37.9809 33.8756 37.9731 33.8752 37.5024 34.1552C37.0884 34.4012 36.9838 34.5694 36.6416 35.5385C35.88 37.6953 34.7375 38.4867 32.3797 38.4907C30.104 38.4946 28.8325 37.6576 28.1818 35.7271C27.8574 34.7648 27.5321 34.2766 27.0527 34.0325C26.8262 33.9172 24.7016 34.0838 18.6685 34.6901C14.2239 35.1366 10.5515 35.502 10.5073 35.502C10.4631 35.502 10.5184 35.2158 10.6299 34.8658C10.7415 34.516 10.8685 34.0115 10.9121 33.7447C10.961 33.4451 11.0823 33.2141 11.2294 33.1404C11.3603 33.0747 12.2867 32.8723 13.288 32.6906C15.7113 32.2508 19.2751 31.4642 21.7841 30.8153C25.1215 29.952 25.8155 29.8806 27.3553 30.2415Z" fill="#E2E7E9"/>
<path fill-rule="evenodd" clip-rule="evenodd" d="M21.3598 28.4264C22.2111 28.212 23.0809 27.985 23.9909 27.7402C24.6165 27.572 27.8027 27.7623 28.4596 28.0071C29.5798 28.4247 31.0473 29.4702 31.7974 30.3852L32.487 31.2263L33.1613 30.4061C33.9567 29.4388 35.203 28.5302 36.3518 28.0802C36.9785 27.8348 37.5736 27.7408 38.8315 27.6885C40.3866 27.6239 40.6133 27.6521 42.583 28.1544C43.0058 28.2622 43.4236 28.3673 43.8382 28.4698C43.7438 27.9648 43.5903 27.4712 43.3799 26.9994C43.0019 26.152 42.4489 25.3941 41.7571 24.7758C41.6243 23.7769 41.3291 22.8064 40.8831 21.9029C42.1336 19.4275 43.0465 16.7956 43.5975 14.0776C43.9949 12.0154 44.2564 9.20453 43.2424 7.52647C43.01 7.11319 42.6697 6.77075 42.2579 6.53567C41.8461 6.3006 41.3783 6.18171 40.9042 6.19168C37.6247 6.19168 35.602 11.8583 34.4441 16.9426C33.2247 16.6915 31.9668 16.6915 30.7474 16.9426C29.5895 11.8583 27.5669 6.19168 24.2873 6.19168C23.8137 6.18132 23.3461 6.29961 22.9343 6.53397C22.5226 6.76832 22.1821 7.10997 21.9491 7.52251C20.9339 9.20057 21.1979 12.0114 21.594 14.0737C22.1447 16.793 23.0576 19.4262 24.3085 21.9029C23.862 22.8077 23.5668 23.7795 23.4344 24.7797C22.7731 25.3718 22.2379 26.0912 21.8609 26.8948C21.6314 27.3841 21.4634 27.8986 21.3598 28.4264ZM29.9968 27.2573C30.1419 27.0402 30.2193 26.7849 30.2193 26.5238C30.2193 26.1736 30.0802 25.8378 29.8326 25.5902C29.585 25.3426 29.2492 25.2035 28.899 25.2035C28.6379 25.2035 28.3826 25.281 28.1655 25.426C27.9484 25.5711 27.7792 25.7773 27.6793 26.0185C27.5793 26.2598 27.5532 26.5253 27.6041 26.7814C27.6551 27.0375 27.7808 27.2727 27.9655 27.4574C28.1501 27.642 28.3853 27.7677 28.6415 27.8187C28.8976 27.8696 29.163 27.8435 29.4043 27.7436C29.6455 27.6436 29.8517 27.4744 29.9968 27.2573ZM35.559 25.426C35.7761 25.281 36.0314 25.2035 36.2925 25.2035C36.6427 25.2035 36.9785 25.3426 37.2261 25.5902C37.4737 25.8378 37.6128 26.1736 37.6128 26.5238C37.6128 26.7849 37.5353 27.0402 37.3903 27.2573C37.2452 27.4744 37.039 27.6436 36.7978 27.7436C36.5565 27.8435 36.291 27.8696 36.0349 27.8187C35.7788 27.7677 35.5436 27.642 35.3589 27.4574C35.1743 27.2727 35.0486 27.0375 34.9976 26.7814C34.9467 26.5253 34.9728 26.2598 35.0727 26.0185C35.1727 25.7773 35.3419 25.5711 35.559 25.426Z" fill="#E2E7E9"/>
<path d="M5.10064 17.2102C5.01237 17.0852 4.96515 16.9358 4.96553 16.7828C4.96591 16.6298 5.01387 16.4807 5.10277 16.3562C5.19499 16.2299 5.32269 16.1341 5.47025 16.0817L6.4443 15.7646C6.68845 15.6832 6.91033 15.5462 7.09243 15.3644C7.27452 15.1826 7.41185 14.9609 7.49356 14.7169L7.8128 13.7303C7.86562 13.5844 7.96289 13.4588 8.09091 13.3711C8.21892 13.2834 8.37122 13.2381 8.52635 13.2415C8.68148 13.245 8.83161 13.297 8.9556 13.3903C9.07959 13.4836 9.17119 13.6134 9.21747 13.7615L9.5353 14.7368C9.61658 14.981 9.75357 15.203 9.93542 15.3852C10.1173 15.5674 10.339 15.7048 10.5831 15.7866L11.5678 16.1072C11.7129 16.1588 11.8383 16.2544 11.9265 16.3805C12.0147 16.5067 12.0614 16.6573 12.0601 16.8112C12.0588 16.9652 12.0095 17.1149 11.9191 17.2395C11.8287 17.3642 11.7017 17.4576 11.5558 17.5067L10.5626 17.8308C10.325 17.9122 10.109 18.0464 9.93081 18.2233C9.75263 18.4003 9.61691 18.6153 9.53388 18.8523L9.21677 19.8382C9.16502 19.9832 9.06941 20.1085 8.94321 20.1967C8.81701 20.2848 8.66648 20.3316 8.51252 20.3303C8.35856 20.3291 8.20881 20.2799 8.08405 20.1897C7.9593 20.0995 7.86573 19.9727 7.81635 19.8269L7.50065 18.8523C7.41918 18.6068 7.28122 18.3838 7.09787 18.2014C6.91453 18.0189 6.69091 17.8821 6.44501 17.8018L5.45819 17.4811C5.31347 17.4301 5.18861 17.335 5.10064 17.2102Z" fill="#E2E7E9"/>
<path d="M57.9372 27.8063C57.9501 27.8915 57.9826 27.9726 58.0321 28.0431C58.0983 28.1362 58.1918 28.2066 58.2996 28.2443L58.8333 28.4187C58.9429 28.4538 59.0422 28.5145 59.1242 28.5965C59.2056 28.6778 59.2669 28.777 59.3042 28.8873L59.4744 29.4131C59.5105 29.5231 59.5802 29.619 59.6737 29.6872C59.7673 29.7554 59.88 29.7924 59.9957 29.793C60.1115 29.7936 60.2246 29.7578 60.3188 29.6906C60.4131 29.6234 60.4838 29.5283 60.521 29.4187L60.6948 28.8859C60.7322 28.7786 60.7939 28.6815 60.8751 28.602C60.9563 28.5225 61.0548 28.4628 61.1629 28.4276L61.6882 28.2574C61.7983 28.2216 61.8944 28.152 61.9627 28.0585C62.031 27.9651 62.0682 27.8525 62.069 27.7368C62.0697 27.6211 62.034 27.508 61.9669 27.4137C61.8998 27.3194 61.8047 27.2485 61.6951 27.2112L61.1622 27.0376C61.0534 27.0008 60.9546 26.9393 60.8735 26.858C60.7924 26.7767 60.7312 26.6778 60.6948 26.5689L60.5224 26.0424C60.4878 25.9315 60.4191 25.8344 60.326 25.7648C60.233 25.6953 60.1203 25.6569 60.0042 25.6552C59.888 25.6534 59.7742 25.6884 59.6791 25.7551C59.584 25.8217 59.5124 25.9168 59.4744 26.0266L59.3007 26.5586C59.2649 26.6675 59.2042 26.7667 59.1215 26.848C59.0398 26.9289 58.9408 26.9902 58.8319 27.0272L58.3065 27.1981C58.225 27.2261 58.1511 27.2726 58.0906 27.334C58.0301 27.3955 57.9848 27.4701 57.9582 27.5521C57.9316 27.6341 57.9244 27.7211 57.9372 27.8063Z" fill="#E2E7E9"/>
</svg>
